HIERARCHY
ROOT Hips
{
	OFFSET 0.000000 0.000000 0.000000
	CHANNELS 6 Xposition Yposition Zposition Zrotation Yrotation Xrotation 
	JOINT LHipJoint
	{
		OFFSET 0.000000 0.000000 0.000000
		CHANNELS 3 Zrotation Yrotation Xrotation
		JOINT LeftUpLeg
		{
			OFFSET 1.363060 -1.794630 0.839290
			CHANNELS 3 Zrotation Yrotation Xrotation
			JOINT LeftLeg
			{
				OFFSET 2.448110 -6.726130 0.000000
				CHANNELS 3 Zrotation Yrotation Xrotation
				JOINT LeftFoot
				{
					OFFSET 2.562200 -7.039590 0.000000
					CHANNELS 3 Zrotation Yrotation Xrotation
					JOINT LeftToeBase
					{
						OFFSET 0.157640 -0.433110 2.322550
						CHANNELS 3 Zrotation Yrotation Xrotation
						End Site
						{
							OFFSET 0.000000 0.000000 0.000000
						}
					}
				}
			}
		}
	}
	JOINT RHipJoint
	{
		OFFSET 0.000000 0.000000 0.000000
		CHANNELS 3 Zrotation Yrotation Xrotation
		JOINT RightUpLeg
		{
			OFFSET -1.305520 -1.794630 0.839290
			CHANNELS 3 Zrotation Yrotation Xrotation
			JOINT RightLeg
			{
				OFFSET -2.542530 -6.985550 0.000000
				CHANNELS 3 Zrotation Yrotation Xrotation
				JOINT RightFoot
				{
					OFFSET -2.568260 -7.056230 0.000000
					CHANNELS 3 Zrotation Yrotation Xrotation
					JOINT RightToeBase
					{
						OFFSET -0.164730 -0.452590 2.363150
						CHANNELS 3 Zrotation Yrotation Xrotation
						End Site
						{
							OFFSET 0.000000 0.000000 0.000000
						}
					}
				}
			}
		}
	}
	JOINT LowerBack
	{
		OFFSET 0.000000 0.000000 0.000000
		CHANNELS 3 Zrotation Yrotation Xrotation
		JOINT Spine
		{
			OFFSET 0.028270 2.035590 -0.193380
			CHANNELS 3 Zrotation Yrotation Xrotation
			JOINT Spine1
			{
				OFFSET 0.056720 2.048850 -0.042750
				CHANNELS 3 Zrotation Yrotation Xrotation
				JOINT Neck
				{
					OFFSET 0.000000 0.000000 0.000000
					CHANNELS 3 Zrotation Yrotation Xrotation
					JOINT Neck1
					{
						OFFSET -0.054170 1.746240 0.172020
						CHANNELS 3 Zrotation Yrotation Xrotation
						JOINT Head
						{
							OFFSET 0.104070 1.761360 -0.123970
							CHANNELS 3 Zrotation Yrotation Xrotation
							End Site
							{
								OFFSET 0.000000 0.000000 0.000000
							}
						}
					}
				}
				JOINT LeftShoulder
				{
					OFFSET 0.000000 0.000000 0.000000
					CHANNELS 3 Zrotation Yrotation Xrotation
					JOINT LeftArm
					{
						OFFSET 3.362410 1.200890 -0.311210
						CHANNELS 3 Zrotation Yrotation Xrotation
						JOINT LeftForeArm
						{
							OFFSET 4.983000 -0.000000 -0.000000
							CHANNELS 3 Zrotation Yrotation Xrotation
							JOINT LeftHand
							{
								OFFSET 3.483560 -0.000000 -0.000000
								CHANNELS 3 Zrotation Yrotation Xrotation
								JOINT LeftFingerBase
								{
									OFFSET 0.000000 0.000000 0.000000
									CHANNELS 3 Zrotation Yrotation Xrotation
									JOINT LeftHandIndex1
									{
										OFFSET 0.715260 -0.000000 -0.000000
										CHANNELS 3 Zrotation Yrotation Xrotation
										End Site
										{
											OFFSET 0.000000 0.000000 0.000000
										}
									}
								}
								JOINT LThumb
								{
									OFFSET 0.000000 0.000000 0.000000
									CHANNELS 3 Zrotation Yrotation Xrotation
									End Site
									{
										OFFSET 0.000000 0.000000 0.000000
									}
								}
							}
						}
					}
				}
				JOINT RightShoulder
				{
					OFFSET 0.000000 0.000000 0.000000
					CHANNELS 3 Zrotation Yrotation Xrotation
					JOINT RightArm
					{
						OFFSET -3.136600 1.374050 -0.404650
						CHANNELS 3 Zrotation Yrotation Xrotation
						JOINT RightForeArm
						{
							OFFSET -5.241900 -0.000000 -0.000000
							CHANNELS 3 Zrotation Yrotation Xrotation
							JOINT RightHand
							{
								OFFSET -3.444170 -0.000000 -0.000000
								CHANNELS 3 Zrotation Yrotation Xrotation
								JOINT RightFingerBase
								{
									OFFSET 0.000000 0.000000 0.000000
									CHANNELS 3 Zrotation Yrotation Xrotation
									JOINT RightHandIndex1
									{
										OFFSET -0.622530 -0.000000 -0.000000
										CHANNELS 3 Zrotation Yrotation Xrotation
										End Site
										{
											OFFSET 0.000000 0.000000 0.000000
										}
									}
								}
								JOINT RThumb
								{
									OFFSET 0.000000 0.000000 0.000000
									CHANNELS 3 Zrotation Yrotation Xrotation
									End Site
									{
										OFFSET 0.000000 0.000000 0.000000
									}
								}
							}
						}
					}
				}
			}
		}
	}
}
MOTION
Frames: 8
Frame Time: 0.008333
1.663151 17.814460 -29.004656 -5.945414 -1.769664 9.676030 -5.891843 -2.575457 0.260771 -12.877185 2.388615 -20.864198 1.030550 10.246276 27.581869 -1.976630 9.137540 -3.016652 0.097800 -2.016800 -5.552000 3.886298 1.828148 0.319986 12.956295 -2.308445 -5.346310 -11.996945 -18.913759 63.944889 1.817875 -17.669140 20.613742 -0.008000 -0.578100 1.588700 1.548094 -0.316112 7.564714 3.711860 -0.209699 -1.603625 3.471965 -0.047400 -3.892675 3.419020 -6.233957 -19.263753 2.582153 -9.512933 14.855741 -3.588500 -3.697200 9.983400 3.490801 -0.802511 0.005084 -85.142241 0.608703 20.514183 18.061322 -27.814958 -4.184860 0.289618 0.225462 -4.281202 15.140975 -5.402048 -1.486100 -7.125000 0.000000 0.000000 -8.807400 24.172400 4.479600 -2.847925 1.970059 0.266072 84.973188 -8.893328 13.442227 -22.057931 32.857704 -6.336742 0.217996 -0.529077 -7.234484 -14.240084 -6.155244 1.429500 7.125000 0.000000 0.000000 10.258100 -35.583000 2.405400 
1.663251 17.817653 -29.001362 -5.983218 -1.747405 9.726601 -5.889298 -2.577105 0.258192 -12.836507 2.427743 -20.912860 1.028977 10.240690 27.566461 -1.965320 9.099546 -2.944636 0.101900 -2.058600 -5.667800 3.887186 1.824769 0.329329 12.988040 -2.383814 -5.250184 -11.933819 -18.888681 63.753455 1.789298 -17.626247 20.731913 -0.037500 -1.249300 3.435100 1.470627 -0.361881 7.596524 3.731015 -0.274434 -1.669610 3.544557 -0.073136 -3.989272 3.447356 -6.013734 -19.199644 2.568706 -9.221387 14.704274 -3.563700 -3.581100 9.927000 3.491586 -0.819273 0.009963 -85.220039 0.830750 20.533620 18.235699 -28.037167 -4.261224 0.287806 0.233096 -4.486754 15.190377 -5.201469 -1.440000 -7.125000 0.000000 0.000000 -8.780600 24.369200 4.425200 -2.839218 1.959242 0.264131 84.881561 -8.925669 13.663749 -22.124503 32.928156 -6.372841 0.224721 -0.529561 -7.396375 -14.328195 -6.666218 1.569700 7.125000 0.000000 0.000000 10.259700 -36.103800 2.273500 
1.662752 17.820747 -28.997670 -6.083697 -1.754103 9.771476 -5.881149 -2.579710 0.249917 -12.711647 2.503153 -21.037238 1.026954 10.229280 27.536084 -1.942481 9.022731 -2.768653 0.104500 -2.084900 -5.740200 3.888797 1.823973 0.337328 13.114133 -2.371816 -5.110937 -11.879872 -18.865945 63.579501 1.856249 -17.783176 20.515683 -0.040900 -1.305000 3.588500 1.457406 -0.369743 7.591445 3.772455 -0.281444 -1.740472 3.613878 -0.074811 -4.072205 3.394629 -5.999762 -19.281620 2.553501 -9.178156 14.873149 -3.560500 -3.552100 10.013400 3.489539 -0.810162 0.006138 -85.423486 0.883376 20.463171 18.271206 -28.084256 -4.275370 0.283121 0.232738 -4.580605 14.979727 -5.211397 -1.421500 -7.125000 0.000000 0.000000 -8.933000 24.365300 4.504600 -2.836278 1.972285 0.265948 84.764518 -9.042227 13.714930 -22.150235 32.952092 -6.386742 0.225038 -0.530020 -7.614771 -14.467138 -6.661390 1.583600 7.125000 0.000000 0.000000 10.145400 -36.104900 2.247200 
1.665746 17.820946 -28.992082 -6.052549 -1.779476 9.808227 -5.876599 -2.579381 0.253833 -12.773949 2.572280 -21.030667 1.021055 10.225048 27.524151 -1.892726 8.862974 -2.828842 0.100300 -2.042000 -5.621800 3.891406 1.821244 0.343159 13.017173 -2.455605 -4.996376 -11.825860 -18.844319 63.415711 1.820425 -17.713478 20.644983 -0.026200 -1.045600 2.874300 1.544668 -0.216320 7.481865 3.542427 -0.083006 -1.796699 3.230466 0.021524 -4.112187 3.468502 -6.283234 -18.913757 2.786835 -9.606018 14.822183 -3.515600 -3.713500 9.908000 3.481153 -0.797826 0.006167 -84.950565 1.024668 21.298177 18.405156 -28.238359 -4.329538 0.278583 0.239408 -4.827265 14.872355 -5.018968 -1.362600 -7.125000 0.000000 0.000000 -9.020700 24.558700 4.508900 -2.854047 1.987876 0.268483 85.302174 -9.210678 13.082573 -22.124794 32.942201 -6.378712 0.223962 -0.532800 -7.454340 -14.447703 -6.623065 1.571000 7.125000 0.000000 0.000000 10.155000 -36.062700 2.260000 
1.667243 17.822343 -28.987292 -6.087563 -1.781888 9.841382 -5.872359 -2.580199 0.254136 -12.743150 2.643378 -21.066171 1.017991 10.219261 27.509385 -1.851544 8.729148 -2.790392 0.100500 -2.044400 -5.628400 3.890886 1.818149 0.350027 13.030795 -2.522075 -4.871442 -11.771919 -18.822345 63.246554 1.825030 -17.742041 20.647576 -0.021300 -0.941400 2.587500 1.524681 -0.233571 7.420734 3.537776 -0.111465 -1.800588 3.236567 0.007100 -4.080387 3.445950 -6.239370 -18.952391 2.794619 -9.537718 14.842397 -3.503500 -3.682100 9.928500 3.479343 -0.796069 0.007113 -84.998177 1.082955 21.380167 18.508237 -28.368077 -4.373736 0.274083 0.242583 -4.941761 14.738772 -4.909454 -1.322500 -7.125000 0.000000 0.000000 -9.123100 24.670700 4.537400 -2.853889 1.988646 0.267613 85.257831 -9.146084 13.089803 -22.082489 32.895422 -6.357690 0.223154 -0.532722 -7.432819 -14.483783 -6.599791 1.569000 7.125000 0.000000 0.000000 10.122100 -36.041200 2.257900 
1.668640 17.823641 -28.982202 -6.127365 -1.777391 9.870191 -5.868533 -2.580381 0.255657 -12.706017 2.713847 -21.090097 1.013804 10.211860 27.489672 -1.806832 8.584256 -2.756588 0.100800 -2.047400 -5.636600 3.889620 1.814971 0.356567 13.049819 -2.602548 -4.746060 -11.719999 -18.801252 63.083513 1.833218 -17.776915 20.635007 -0.014500 -0.776600 2.134400 1.499208 -0.269282 7.353292 3.554260 -0.164672 -1.785571 3.276732 -0.020268 -4.017858 3.403252 -6.184340 -19.048226 2.778633 -9.446052 14.882950 -3.496700 -3.642800 9.968600 3.477786 -0.793746 0.008056 -85.088810 1.112854 21.401763 18.607418 -28.493711 -4.416424 0.269299 0.244835 -5.047948 14.582108 -4.826607 -1.287400 -7.125000 0.000000 0.000000 -9.241100 24.756800 4.578900 -2.852774 1.988343 0.266353 85.156722 -9.034715 13.157196 -22.031853 32.837812 -6.331444 0.221651 -0.532117 -7.393576 -14.497123 -6.520015 1.549900 7.125000 0.000000 0.000000 10.099600 -35.961700 2.272600 
1.669837 17.824738 -28.977412 -6.172888 -1.761916 9.900501 -5.863869 -2.580545 0.257016 -12.661573 2.784465 -21.114971 1.011540 10.207671 27.480837 -1.758025 8.425300 -2.736346 0.101100 -2.050400 -5.644900 3.887989 1.811850 0.363244 13.075380 -2.700616 -4.628269 -11.668722 -18.780142 62.920996 1.843380 -17.820092 20.620444 -0.009500 -0.628900 1.728300 1.473469 -0.309121 7.291630 3.577098 -0.223165 -1.770343 3.326100 -0.050050 -3.957829 3.361602 -6.128131 -19.148527 2.750918 -9.352727 14.911703 -3.494300 -3.605300 10.004500 3.476453 -0.792954 0.009177 -85.184464 1.137903 21.417232 18.703871 -28.615905 -4.458065 0.264490 0.246804 -5.147389 14.420977 -4.750491 -1.254000 -7.125000 0.000000 0.000000 -9.362200 24.836100 4.623000 -2.850634 1.986694 0.265116 85.039822 -8.937809 13.275303 -22.007764 32.808533 -6.317971 0.220477 -0.531341 -7.379007 -14.489556 -6.437117 1.527700 7.125000 0.000000 0.000000 10.094100 -35.878200 2.292200 
1.670736 17.826135 -28.972921 -6.230206 -1.735909 9.932162 -5.858669 -2.580861 0.257431 -12.598348 2.849902 -21.146730 1.010365 10.204097 27.475275 -1.707882 8.261439 -2.710075 0.101000 -2.049300 -5.642000 3.885974 1.808836 0.370191 13.118029 -2.810335 -4.520756 -11.620601 -18.759802 62.764771 1.857188 -17.883163 20.607126 -0.006900 -0.536100 1.473200 1.435109 -0.362151 7.249429 3.624942 -0.298051 -1.760345 3.418295 -0.086977 -3.913135 3.316085 -6.045635 -19.266377 2.695909 -9.220941 14.924738 -3.497900 -3.555900 10.038500 3.476162 -0.795379 0.010519 -85.332900 1.160549 21.367987 18.790050 -28.726379 -4.495716 0.259682 0.248205 -5.213140 14.253373 -4.684168 -1.222800 -7.125000 0.000000 0.000000 -9.487500 24.905700 4.670900 -2.845889 1.982380 0.263639 84.867689 -8.849234 13.471000 -22.004653 32.799977 -6.314510 0.219814 -0.530301 -7.404048 -14.478432 -6.372132 1.509800 7.125000 0.000000 0.000000 10.094100 -35.812700 2.308600 
